<svg width="18" height="18" viewBox="0 0 18 18" fill="none" xmlns="http://www.w3.org/2000/svg">
<path d="M13.45 12.7334V7.23336C13.4478 6.53784 13.1705 5.87144 12.6787 5.37963C12.1869 4.88782 11.5205 4.61056 10.825 4.60836H3.32501V3.90002C3.32499 2.87663 3.72981 1.89478 4.45112 1.16879C5.17242 0.442798 6.15163 0.031627 7.17501 0.0250244H14.0417C15.0694 0.0250244 16.055 0.433282 16.7817 1.15999C17.5084 1.88669 17.9167 2.87231 17.9167 3.90002V8.90002C17.9145 9.91912 17.511 10.8963 16.7936 11.6201C16.0761 12.3438 15.1024 12.7557 14.0833 12.7667L13.45 12.7334ZM10.825 3.35836C11.8527 3.35836 12.8383 3.76662 13.565 4.49332C14.2918 5.22002 14.7 6.20564 14.7 7.23336V11.4C15.2563 11.256 15.7499 10.9334 16.1051 10.4818C16.4604 10.0302 16.6577 9.47454 16.6667 8.90002V3.90002C16.6645 3.20451 16.3872 2.5381 15.8954 2.0463C15.4036 1.55449 14.7372 1.27722 14.0417 1.27502H7.17501C6.57162 1.27428 5.98652 1.4821 5.51878 1.86328C5.05104 2.24446 4.72941 2.77557 4.60834 3.36669L10.825 3.35836ZM7.39168 17.975C7.11942 17.9764 6.85098 17.911 6.60983 17.7846C6.36868 17.6582 6.16217 17.4747 6.00834 17.25L5.25834 16.1917C5.23236 16.1517 5.19642 16.1191 5.15405 16.0972C5.11168 16.0753 5.06434 16.0648 5.01668 16.0667H4.00001C3.48764 16.0722 2.97927 15.976 2.50431 15.7838C2.02936 15.5915 1.59725 15.3069 1.233 14.9466C0.868744 14.5862 0.579582 14.1572 0.382245 13.6843C0.184908 13.2114 0.0833139 12.7041 0.0833435 12.1917V7.23336C0.0833139 6.72096 0.184908 6.21364 0.382245 5.74077C0.579582 5.2679 0.868744 4.83886 1.233 4.47848C1.59725 4.1181 2.02936 3.83355 2.50431 3.64128C2.97927 3.44901 3.48764 3.35285 4.00001 3.35836H10.8667C11.8944 3.35836 12.88 3.76662 13.6067 4.49332C14.3334 5.22002 14.7417 6.20564 14.7417 7.23336V12.1917C14.7417 13.2194 14.3334 14.205 13.6067 14.9317C12.88 15.6584 11.8944 16.0667 10.8667 16.0667H9.76668C9.71914 16.0656 9.67209 16.0764 9.62986 16.0983C9.58762 16.1201 9.55157 16.1523 9.52501 16.1917L8.77501 17.25C8.62119 17.4747 8.41467 17.6582 8.17352 17.7846C7.93237 17.911 7.66393 17.9764 7.39168 17.975ZM4.00001 4.60836C3.6521 4.60395 3.30677 4.66854 2.98397 4.79838C2.66116 4.92822 2.36729 5.12074 2.11934 5.36483C1.87138 5.60891 1.67425 5.89971 1.53934 6.22043C1.40443 6.54115 1.33442 6.88542 1.33334 7.23336V12.1917C1.33108 12.5413 1.39869 12.8879 1.53222 13.2111C1.66574 13.5343 1.86249 13.8275 2.1109 14.0736C2.35931 14.3196 2.65438 14.5136 2.97878 14.6441C3.30319 14.7746 3.65039 14.8389 4.00001 14.8334H5.01668C5.26537 14.8321 5.51062 14.8914 5.7313 15.0061C5.95197 15.1208 6.14143 15.2875 6.28334 15.4917L7.02501 16.5C7.06634 16.559 7.12121 16.6071 7.18501 16.6405C7.24881 16.6738 7.31968 16.6914 7.39168 16.6917C7.46367 16.6914 7.53454 16.6738 7.59834 16.6405C7.66215 16.6071 7.71701 16.559 7.75834 16.5L8.50001 15.4417C8.64737 15.2467 8.83922 15.0897 9.05956 14.9839C9.2799 14.8781 9.52234 14.8265 9.76668 14.8334H10.825C11.5212 14.8334 12.1889 14.5568 12.6812 14.0645C13.1734 13.5722 13.45 12.9046 13.45 12.2084V7.23336C13.4478 6.53784 13.1705 5.87144 12.6787 5.37963C12.1869 4.88782 11.5205 4.61056 10.825 4.60836H4.00001ZM4.48334 9.00002C4.32841 9.00002 4.17697 9.04597 4.04815 9.13204C3.91933 9.21811 3.81893 9.34045 3.75964 9.48359C3.70035 9.62672 3.68484 9.78423 3.71506 9.93618C3.74529 10.0881 3.81989 10.2277 3.92944 10.3373C4.03899 10.4468 4.17857 10.5214 4.33052 10.5516C4.48247 10.5819 4.63998 10.5664 4.78311 10.5071C4.92625 10.4478 5.04859 10.3474 5.13466 10.2186C5.22074 10.0897 5.26668 9.93829 5.26668 9.78336C5.26451 9.57628 5.18128 9.37829 5.03485 9.23185C4.88841 9.08542 4.69042 9.00219 4.48334 9.00002ZM7.40001 9.00002C7.2466 8.99708 7.09571 9.03924 6.96606 9.12129C6.83641 9.20334 6.73371 9.32166 6.6707 9.46156C6.6077 9.60146 6.58717 9.75679 6.61166 9.90825C6.63615 10.0597 6.70459 10.2007 6.80847 10.3136C6.91235 10.4265 7.04711 10.5064 7.19601 10.5434C7.34492 10.5804 7.50141 10.5729 7.64607 10.5217C7.79073 10.4706 7.91718 10.3781 8.00973 10.2557C8.10228 10.1333 8.15685 9.98648 8.16668 9.83336C8.17228 9.72801 8.15677 9.62262 8.12106 9.52335C8.08535 9.42409 8.03016 9.33296 7.95874 9.25533C7.88731 9.17769 7.8011 9.11512 7.70515 9.07127C7.6092 9.02743 7.50545 9.00321 7.40001 9.00002ZM10.3083 9.00002C10.1534 9.00002 10.002 9.04597 9.87315 9.13204C9.74433 9.21811 9.64393 9.34045 9.58464 9.48359C9.52535 9.62672 9.50984 9.78423 9.54006 9.93618C9.57029 10.0881 9.64489 10.2277 9.75444 10.3373C9.86399 10.4468 10.0036 10.5214 10.1555 10.5516C10.3075 10.5819 10.465 10.5664 10.6081 10.5071C10.7512 10.4478 10.8736 10.3474 10.9597 10.2186C11.0457 10.0897 11.0917 9.93829 11.0917 9.78336C11.0895 9.57628 11.0063 9.37829 10.8598 9.23185C10.7134 9.08542 10.5154 9.00219 10.3083 9.00002Z" fill="#7E8299"/>
</svg>
