<svg width="12" height="12" viewBox="0 0 12 12" fill="none" xmlns="http://www.w3.org/2000/svg">
<path d="M11 6.83331H6.83332V11C6.83332 11.221 6.74553 11.433 6.58925 11.5892C6.43296 11.7455 6.221 11.8333 5.99999 11.8333C5.77898 11.8333 5.56701 11.7455 5.41073 11.5892C5.25445 11.433 5.16666 11.221 5.16666 11V6.83331H0.99999C0.778976 6.83331 0.567015 6.74552 0.410734 6.58924C0.254454 6.43295 0.166656 6.22099 0.166656 5.99998C0.166656 5.77897 0.254454 5.567 0.410734 5.41072C0.567015 5.25444 0.778976 5.16665 0.99999 5.16665H5.16666V0.99998C5.16666 0.778966 5.25445 0.567004 5.41073 0.410724C5.56701 0.254443 5.77898 0.166647 5.99999 0.166647C6.221 0.166647 6.43296 0.254443 6.58925 0.410724C6.74553 0.567004 6.83332 0.778966 6.83332 0.99998V5.16665H11C11.221 5.16665 11.433 5.25444 11.5892 5.41072C11.7455 5.567 11.8333 5.77897 11.8333 5.99998C11.8333 6.22099 11.7455 6.43295 11.5892 6.58924C11.433 6.74552 11.221 6.83331 11 6.83331Z" fill="#2884EF"/>
</svg>
