<svg width="150" height="26" viewBox="0 0 150 26" fill="none" xmlns="http://www.w3.org/2000/svg">
<path d="M0 13.3182H5.98227C7.34727 13.3182 8.76136 13.235 9.92318 12.5191C10.8314 11.9595 11.5959 11.195 12.1555 10.2868C12.8714 9.12501 12.9545 7.71092 12.9545 6.34592V0.363647H4.09091C3.00593 0.363647 1.96539 0.794653 1.1982 1.56185C0.431005 2.32904 0 3.36958 0 4.45456L0 13.3182ZM31.6739 1.72728C31.6739 2.08894 31.5302 2.43579 31.2745 2.69152C31.0187 2.94725 30.6719 3.09092 30.3102 3.09092C29.9486 3.09092 29.6017 2.94725 29.346 2.69152C29.0903 2.43579 28.9466 2.08894 28.9466 1.72728C28.9466 1.36563 29.0903 1.01878 29.346 0.763047C29.6017 0.507316 29.9486 0.363647 30.3102 0.363647C30.6719 0.363647 31.0187 0.507316 31.2745 0.763047C31.5302 1.01878 31.6739 1.36563 31.6739 1.72728ZM144.348 8.61637C148.16 8.61637 150 11.2789 150 14.3627V20.1548H146.011V15.05C146.011 13.6523 145.501 12.4986 144.038 12.4986C142.576 12.4986 142.088 13.6523 142.088 15.05V20.1541H138.099V15.05C138.099 13.6523 137.611 12.4986 136.148 12.4986C134.686 12.4986 134.176 13.6523 134.176 15.05V20.1541H130.187V14.3621C130.187 11.2782 132.026 8.61569 135.838 8.61569C137.922 8.61569 139.428 9.4366 140.116 10.79C140.847 9.4366 142.443 8.61501 144.348 8.61501V8.61637ZM123.018 16.6046C124.304 16.6046 124.858 15.4284 124.858 14.03V9.05956H128.847V14.5182C128.847 17.78 126.941 20.4875 123.018 20.4875C119.095 20.4875 117.19 17.7807 117.19 14.5182V9.05956H121.179V14.03C121.179 15.4277 121.733 16.6046 123.018 16.6046ZM111.324 20.5093C108.82 20.5093 107.202 19.6441 106.248 17.958L109.13 16.338C109.529 17.0477 110.127 17.403 111.124 17.403C111.944 17.403 112.321 17.1146 112.321 16.7593C112.321 15.4059 106.47 16.7818 106.47 12.4775C106.47 10.3911 108.243 8.70501 111.257 8.70501C113.894 8.70501 115.335 9.9916 115.978 11.2346L113.097 12.8764C112.853 12.2109 112.099 11.8114 111.346 11.8114C110.77 11.8114 110.459 12.0555 110.459 12.3882C110.459 13.7641 116.31 12.4993 116.31 16.6707C116.31 19.0005 114.027 20.5093 111.324 20.5093ZM97.3861 25.2582H93.3968V14.585C93.3968 11.1896 95.9455 8.72683 99.4916 8.72683C102.949 8.72683 105.586 11.3675 105.586 14.585C105.586 18.1352 103.237 20.4875 99.7132 20.4875C98.893 20.4875 98.0734 20.2434 97.3861 19.8657V25.2582ZM99.4916 16.7375C100.755 16.7375 101.597 15.7611 101.597 14.6068C101.597 13.4314 100.755 12.4768 99.4916 12.4768C98.2282 12.4768 97.3861 13.4314 97.3861 14.6075C97.3861 15.7611 98.2282 16.7375 99.4916 16.7375ZM89.4007 7.8841C88.093 7.8841 87.0075 6.7966 87.0075 5.48751C87.0075 4.17842 88.093 3.09092 89.4007 3.09092C90.7084 3.09092 91.7945 4.17842 91.7945 5.48751C91.7945 6.7966 90.7084 7.8841 89.4007 7.8841ZM87.4064 9.05956H91.3957V20.1548H87.4064V9.05956ZM79.7523 20.4875C76.2948 20.4875 73.6575 17.825 73.6575 14.585C73.6575 11.3675 76.2948 8.70501 79.7523 8.70501C83.2098 8.70501 85.847 11.3675 85.847 14.585C85.847 17.825 83.2098 20.4875 79.7523 20.4875ZM79.7523 16.7375C81.0157 16.7375 81.8577 15.7611 81.8577 14.6068C81.8577 13.4314 81.0157 12.455 79.7523 12.455C78.4889 12.455 77.6468 13.4314 77.6468 14.6068C77.6468 15.7611 78.4889 16.7375 79.7523 16.7375ZM66.1248 25.5909C63.377 25.5909 61.382 24.3705 60.3627 22.1955L63.6648 20.4207C64.0193 21.1755 64.6841 21.9521 66.058 21.9521C67.4993 21.9521 68.4518 21.0418 68.563 19.4443C68.0311 19.9107 67.1884 20.2652 65.9257 20.2652C62.8445 20.2652 60.362 17.8911 60.362 14.5625C60.362 11.3457 63 8.72683 66.4575 8.72683C70.0036 8.72683 72.5523 11.1902 72.5523 14.585V18.9786C72.5523 22.9727 69.7814 25.5909 66.1248 25.5909ZM66.3907 16.5159C67.5873 16.5159 68.4961 15.6943 68.4961 14.4739C68.4961 13.2759 67.588 12.4768 66.3907 12.4768C65.2159 12.4768 64.2852 13.2759 64.2852 14.4746C64.2852 15.695 65.2159 16.5152 66.3907 16.5152V16.5159ZM53.5957 20.4875C50.1382 20.4875 47.5002 17.825 47.5002 14.585C47.5002 11.3675 50.1382 8.70501 53.5957 8.70501C57.0525 8.70501 59.6905 11.3675 59.6905 14.585C59.6905 17.825 57.0532 20.4875 53.5957 20.4875ZM53.5957 16.7375C54.8591 16.7375 55.7011 15.7611 55.7011 14.6068C55.7011 13.4314 54.8591 12.455 53.5957 12.455C52.3323 12.455 51.4902 13.4314 51.4902 14.6068C51.4902 15.7611 52.3323 16.7375 53.5957 16.7375ZM40.2361 5.17728V16.3823H46.8409V20.1548H39.6818C37.1557 20.1548 36.1364 18.8232 36.1364 16.715V5.17728H40.2361Z" fill="white"/>
</svg>
